<svg width="158" height="14" fill="none" xmlns="http://www.w3.org/2000/svg"><g clip-path="url(#clip0_2646_885)" fill="#FAFAFA"><path d="M57.586 3.717H40.438l7.615 6.957v3.063h1.918v-3.059l7.615-6.961zM9.513 11.104c0 .5.221.72.623.72.29 0 .535-.043.824-.172v1.675c-.49.35-1.113.634-2.09.634-1.176 0-2.044-.61-2.333-1.7-.554 1.11-1.78 1.7-3.315 1.7-1.981 0-3.222-.98-3.222-2.636C0 9.477 1.422 8.69 3.6 8.277l2.755-.48v-.173c0-.913-.466-1.46-1.446-1.46-.981 0-1.403.567-1.58 1.373L.35 7.321c.333-2.07 1.912-3.505 4.736-3.505 2.58 0 4.423 1.133 4.423 3.764v3.524h.005zM6.355 9.448l-1.623.327c-1 .196-1.623.436-1.623 1.195 0 .567.446.912 1.133.912 1.177 0 2.113-.869 2.113-2.242v-.197.005zM19.541 7.143c-.51-.283-1-.393-1.692-.393-1.334 0-2.221.74-2.221 2.415v4.57h-3.202V4.071h3.202v1.762c.378-1.09 1.402-2.026 2.736-2.026.598 0 1.113.172 1.378.393l-.2 2.939v.004zM22.01 6.27h-1.377V4.355l.71-.11c.977-.173 1.266-.678 1.511-1.566l.334-1.286h1.98v2.679h2.624V6.27H25.17V10.3c0 .825.402 1.176 1.157 1.176.49 0 1-.13 1.599-.394v2.07c-.736.542-1.58.85-2.869.85-1.599 0-3.045-.678-3.045-2.853V6.27zM39.33 10.557c-.51 2.199-2.266 3.438-4.845 3.438-3.134 0-5.36-1.873-5.36-4.94 0-3.069 2.265-5.248 5.291-5.248 3.266 0 4.982 2.199 4.982 4.83v.955h-7.115c.088 1.287 1.07 2.026 2.315 2.026 1.113 0 1.8-.413 2.157-1.306l2.58.24-.005.005zm-3.026-2.636c-.069-.955-.691-1.829-1.912-1.829-1.29 0-1.888.807-2.07 1.83h3.982zM68.783 10.534c-.51 2.198-2.266 3.437-4.845 3.437-3.134 0-5.36-1.872-5.36-4.94 0-3.068 2.266-5.248 5.291-5.248 3.266 0 4.983 2.2 4.983 4.83v.956h-7.116c.088 1.286 1.07 2.026 2.31 2.026 1.113 0 1.8-.413 2.157-1.306l2.58.24v.005zm-3.026-2.636c-.068-.956-.691-1.83-1.912-1.83-1.29 0-1.888.807-2.07 1.83h3.982zM78.031 11.993c-.466 1.133-1.623 1.983-3.315 1.983-2.913 0-4.403-2.242-4.403-5.094 0-2.852 1.49-5.094 4.403-5.094 1.692 0 2.844.85 3.315 2.002V0h3.222v13.712H78.03v-1.719zm0-3.221c0-1.546-.912-2.526-2.221-2.526-1.535 0-2.246 1.066-2.246 2.636s.71 2.655 2.246 2.655c1.309 0 2.221-.98 2.221-2.545v-.22zM90.192 4.047h3.221v9.665h-3.221v-1.503c-.535 1.09-1.643 1.762-3.134 1.762-2.668 0-3.511-1.786-3.511-3.85V4.046h3.202v5.31c0 1.373.466 2.132 1.648 2.132 1.181 0 1.8-.98 1.8-2.526V4.047h-.005zM100.601 3.788c2.932 0 4.58 1.892 4.825 4.201l-2.667.197c-.221-1.306-.932-2.002-2.134-2.002-1.201 0-2.113.85-2.113 2.698 0 1.848.868 2.698 2.113 2.698 1.246 0 1.913-.72 2.134-2.026l2.667.216c-.245 2.329-1.888 4.201-4.825 4.201-3.09 0-5.335-2.026-5.335-5.094 0-3.068 2.246-5.094 5.335-5.094v.005zM116.209 11.081c0 .5.22.72.622.72.29 0 .535-.043.824-.173v1.676c-.49.35-1.113.634-2.089.634-1.177 0-2.045-.61-2.334-1.7-.554 1.11-1.78 1.7-3.315 1.7-1.981 0-3.222-.98-3.222-2.636 0-1.849 1.422-2.636 3.6-3.049l2.756-.48V7.6c0-.912-.466-1.46-1.447-1.46-.981 0-1.402.567-1.579 1.374l-2.982-.216c.334-2.07 1.913-3.505 4.738-3.505 2.579 0 4.423 1.133 4.423 3.764v3.524h.005zm-3.158-1.656l-1.624.326c-1 .197-1.623.437-1.623 1.196 0 .566.447.912 1.133.912 1.177 0 2.114-.87 2.114-2.242V9.42v.005zM123.788 3.788c2.933 0 4.581 1.892 4.826 4.201l-2.668.197c-.221-1.306-.932-2.002-2.133-2.002s-2.114.85-2.114 2.698c0 1.848.868 2.698 2.114 2.698s1.912-.72 2.133-2.026l2.668.216c-.245 2.329-1.888 4.201-4.826 4.201-3.089 0-5.335-2.026-5.335-5.094 0-3.068 2.246-5.094 5.335-5.094v.005zM130.414 0h3.266v2.871h-3.266V0zm3.222 4.047v9.665h-3.202V4.047h3.202zM140.816 13.975c-3.158 0-5.316-2.088-5.316-5.094 0-3.005 2.158-5.094 5.316-5.094s5.335 2.113 5.335 5.094c0 2.982-2.177 5.094-5.335 5.094zm0-2.372c1.402 0 2.089-1.109 2.089-2.722s-.692-2.722-2.089-2.722c-1.398 0-2.07 1.109-2.07 2.722s.643 2.722 2.07 2.722zm-1.177-8.574L140.84.004h3.266l-2.158 3.025h-2.309zM151.218 13.711h-3.202V4.046h3.202V5.55c.534-1.066 1.736-1.762 3.222-1.762 2.667 0 3.555 1.805 3.555 3.875v6.049h-3.202v-5.29c0-1.393-.466-2.157-1.648-2.157-1.29 0-1.932 1.004-1.932 2.526v4.921h.005z"/></g><defs><clipPath id="clip0_2646_885"><path fill="#fff" d="M0 0h158v14H0z"/></clipPath></defs></svg>